<mxfile host="app.diagrams.net" modified="2024-07-01T19:19:00.749Z" agent="Mozilla/5.0 (Windows NT 10.0; Win64; x64) AppleWebKit/537.36 (KHTML, like Gecko) Chrome/126.0.0.0 Safari/537.36" version="24.6.4" etag="pxanmEp2z67MWZkQc73A" type="github">
  <diagram name="PÃ¡gina-1" id="FX4Bw539WrUGXnIqLKF7">
    <mxGraphModel>
      <root>
        <mxCell id="0" />
        <mxCell id="1" parent="0" />
      </root>
    </mxGraphModel>
  </diagram>
</mxfile>
